<svg width="111" height="39" viewBox="0 0 111 39" fill="none" xmlns="http://www.w3.org/2000/svg">
<g clip-path="url(#clip0_533_917)">
<path d="M-0.0976562 29.9844V28.9531C-0.0976562 26.1641 0.625 24.0781 2.07031 22.6953C3.52344 21.3125 5.46484 20.6211 7.89453 20.6211C10.0977 20.6211 11.832 21.1367 13.0977 22.168C14.3633 23.1914 14.9727 24.5273 14.9258 26.1758L14.9141 26.4805H10.1445V26.3047C10.1445 25.625 9.94531 25.0977 9.54688 24.7227C9.14844 24.3398 8.52344 24.1484 7.67188 24.1484C6.82812 24.1484 6.15234 24.4492 5.64453 25.0508C5.14453 25.6523 4.89453 26.6602 4.89453 28.0742V30.8984C4.89453 32.3359 5.18359 33.3555 5.76172 33.957C6.34766 34.5586 7.12109 34.8594 8.08203 34.8594C8.55078 34.8594 8.94531 34.8086 9.26562 34.707C9.59375 34.6055 9.91797 34.4375 10.2383 34.2031V31.9648H7.85938V28.6133H14.9492V35.7617C14.3477 36.3867 13.4805 36.9688 12.3477 37.5078C11.2148 38.0469 9.78516 38.3164 8.05859 38.3164C5.52734 38.3164 3.53516 37.625 2.08203 36.2422C0.628906 34.8594 -0.0976562 32.7734 -0.0976562 29.9844ZM17.1758 38V20.9375H24.2891C26.2969 20.9375 27.8828 21.4297 29.0469 22.4141C30.2188 23.3906 30.8047 24.7812 30.8047 26.5859C30.8047 28.4219 30.207 29.8516 29.0117 30.875C27.8164 31.8984 26.2344 32.4102 24.2656 32.4102H22.0156V38H17.1758ZM22.0156 29.0938H23.7617C24.5508 29.0938 25.1094 28.8906 25.4375 28.4844C25.7734 28.0781 25.9453 27.4883 25.9531 26.7148C25.9531 25.957 25.7852 25.3789 25.4492 24.9805C25.1133 24.582 24.5508 24.3828 23.7617 24.3828H22.0156V29.0938ZM26.1758 38L22.5898 30.3125L27.5 29.8789L31.543 38H26.1758ZM50.5039 29.9844V28.9531C50.5039 26.1172 51.2227 24.0195 52.6602 22.6602C54.1055 21.3008 56.0234 20.6211 58.4141 20.6211C60.6328 20.6211 62.3945 21.168 63.6992 22.2617C65.0039 23.3477 65.6562 24.8555 65.6562 26.7852V27.4414H60.8633V26.5742C60.8633 25.7227 60.6602 25.0977 60.2539 24.6992C59.8477 24.3008 59.2266 24.1016 58.3906 24.1016C57.5156 24.1016 56.8242 24.3867 56.3164 24.957C55.8164 25.5273 55.5664 26.543 55.5664 28.0039V30.9336C55.5664 32.3164 55.8086 33.3164 56.293 33.9336C56.7852 34.5508 57.5078 34.8594 58.4609 34.8594C59.2656 34.8594 59.8633 34.6367 60.2539 34.1914C60.6445 33.7461 60.8477 33.0938 60.8633 32.2344V31.5312H65.6562V32.2812C65.6406 34.1172 64.9844 35.582 63.6875 36.6758C62.3906 37.7695 60.6328 38.3164 58.4141 38.3164C55.9922 38.3164 54.0664 37.6289 52.6367 36.2539C51.2148 34.8711 50.5039 32.7812 50.5039 29.9844ZM67.5195 38V20.9375H79.6602V24.5703H72.2656V27.5703H78.6289V31.0039H72.2656V34.4258H79.8125V38H67.5195ZM81.8867 38V20.9375H89C91.0078 20.9375 92.5938 21.4297 93.7578 22.4141C94.9297 23.3906 95.5156 24.7812 95.5156 26.5859C95.5156 28.4219 94.918 29.8516 93.7227 30.875C92.5273 31.8984 90.9453 32.4102 88.9766 32.4102H86.7266V38H81.8867ZM86.7266 29.0938H88.4727C89.2617 29.0938 89.8203 28.8906 90.1484 28.4844C90.4844 28.0781 90.6562 27.4883 90.6641 26.7148C90.6641 25.957 90.4961 25.3789 90.1602 24.9805C89.8242 24.582 89.2617 24.3828 88.4727 24.3828H86.7266V29.0938ZM90.8867 38L87.3008 30.3125L92.2109 29.8789L96.2539 38H90.8867ZM100.988 38V32.0352L95.1641 20.9375H100.473L103.203 26.3281C103.297 26.5312 103.379 26.7305 103.449 26.9258C103.52 27.1133 103.586 27.3086 103.648 27.5117H103.719C103.781 27.3086 103.848 27.1133 103.918 26.9258C103.988 26.7305 104.074 26.5312 104.176 26.3281L106.941 20.9375H111.488L105.852 31.7773V38H100.988Z" fill="white"/>
<path d="M15.0762 6.53005C15.2836 7.98703 15.4964 9.28618 15.7146 10.4275C16.2563 13.2602 16.9314 15.7466 17.7398 17.8869C17.8552 18.1926 17.7841 18.4913 17.5263 18.7829C17.2658 19.0608 16.9568 19.2339 16.5993 19.3023C16.3931 19.3417 16.212 19.3265 16.056 19.2565C15.9001 19.1866 15.79 19.0579 15.7257 18.8707C14.858 16.2714 14.1758 13.8219 13.679 11.5223C13.3188 13.2161 12.9488 15.5675 12.5692 18.5763C12.566 18.634 12.5392 18.7175 12.4889 18.8269C12.3967 19.0156 12.236 19.1817 12.0069 19.3253C11.7778 19.4689 11.5395 19.5643 11.292 19.6117C11.0995 19.6485 10.9429 19.6499 10.8224 19.6159C10.6252 19.5539 10.5109 19.4403 10.4793 19.2753C10.4714 19.2341 10.4707 19.1558 10.4772 19.0405C10.462 18.8866 10.4268 18.6653 10.3716 18.3766C10.2796 17.8953 10.1055 17.2087 9.84945 16.317L9.55395 15.2189C9.24125 13.8819 8.99984 12.8804 8.82974 12.2145C8.40111 13.5508 8.0495 14.5445 7.77492 15.1957C7.77886 17.0051 7.55226 18.8017 7.09514 20.5853C7.0357 20.7962 6.86099 21.0006 6.57102 21.1986C6.28104 21.3966 5.9848 21.5245 5.68228 21.5824C5.48977 21.6192 5.32506 21.6151 5.18815 21.57C5.065 21.5223 4.99159 21.4365 4.96792 21.3128C4.95214 21.2303 4.95568 21.1369 4.97852 21.0328C5.3481 19.5368 5.55985 18.0353 5.61376 16.5283C5.54824 16.4838 5.50627 16.4135 5.48787 16.3172C5.46157 16.1797 5.48896 16.0248 5.57005 15.8525L5.62494 15.6923C5.63459 14.5502 5.52108 13.3603 5.28441 12.1228C5.18449 11.6002 5.06525 11.0885 4.92671 10.5876C4.86825 10.3565 4.98563 10.1131 5.27883 9.85749C5.57204 9.60187 5.89053 9.44119 6.2343 9.37545C6.42681 9.33864 6.59283 9.34965 6.73237 9.40849C6.8719 9.46733 6.96301 9.57106 7.00568 9.71969C7.08052 9.96194 7.18428 10.3555 7.31696 10.9002C7.52279 10.2622 7.75582 9.65464 8.01604 9.07749C7.99884 8.83846 8.12572 8.60752 8.39669 8.38466C8.66502 8.14805 8.9642 7.99819 9.29422 7.93508C9.50048 7.89563 9.68157 7.91089 9.83748 7.98085C10.0045 8.03443 10.1133 8.15616 10.1639 8.34604C10.6406 10.0936 11.0393 11.6565 11.3599 13.0349C11.8499 10.6035 12.408 8.56543 13.0342 6.92054C13.1016 6.75087 13.2609 6.57787 13.5122 6.40152C13.7636 6.22517 14.0199 6.11201 14.2812 6.06205C14.4874 6.02261 14.6616 6.03918 14.8038 6.11177C14.9597 6.18173 15.0505 6.32115 15.0762 6.53005ZM21.8713 26.9532C21.8216 26.9912 21.8075 27.0296 21.8292 27.0682C21.8239 27.0407 21.838 27.0024 21.8713 26.9532ZM23.0571 5.53836C23.0072 5.27709 23.1219 5.01997 23.4014 4.76697C23.6808 4.51398 23.9924 4.35462 24.3362 4.28888C24.5425 4.24943 24.7167 4.266 24.8588 4.33859C25.0121 4.3948 25.1072 4.51916 25.144 4.71167C25.2918 5.41034 25.3752 6.10708 25.394 6.80191C25.424 7.48036 25.4352 8.43322 25.4276 9.66049C25.4122 10.1766 25.4063 10.5554 25.4097 10.7971C25.4228 13.4743 25.339 16.2412 25.1584 19.098C25.0685 20.6404 24.9617 21.908 24.838 22.9009C24.7307 23.9049 24.5398 24.8822 24.2654 25.8326C24.093 26.4215 23.8262 26.9642 23.465 27.4609C23.1065 27.9713 22.6866 28.2726 22.2054 28.3646C21.8753 28.4277 21.5298 28.3726 21.1689 28.1993C20.2694 27.7442 19.6264 26.5059 19.2398 24.4846C19.1346 23.9345 19.0178 23.1373 18.8893 22.0928C18.8531 21.8289 18.9816 21.5692 19.2748 21.3136C19.568 21.0579 19.8865 20.8972 20.2303 20.8315C20.6978 20.7421 20.9589 20.8775 21.0135 21.2376C21.107 21.8754 21.1852 22.3593 21.2484 22.6894C21.393 23.4456 21.5749 24.1734 21.7942 24.8727C21.8237 24.9526 21.8706 25.0861 21.9349 25.2734C22.013 25.458 22.094 25.6207 22.1779 25.7614C22.204 25.5997 22.2494 25.4271 22.3141 25.2436C22.4819 24.5559 22.5821 24.0735 22.6146 23.7964C22.743 22.9024 22.8678 21.6171 22.989 19.9405C23.0927 18.3955 23.1634 17.0136 23.2011 15.7949C22.621 16.8608 21.912 17.5879 21.074 17.9762C20.6661 18.154 20.3453 18.2652 20.1115 18.3099C18.5715 18.6044 17.5792 17.5898 17.1348 15.2659C16.7982 13.5058 16.7944 11.0263 17.1235 7.82761C17.1449 7.56694 17.2954 7.31011 17.5748 7.05712C17.8516 6.79038 18.1344 6.6294 18.4232 6.57418C18.8082 6.50055 19.0693 6.63592 19.2064 6.98029C19.2628 7.12629 19.2594 7.36926 19.1961 7.7092C19.1329 8.04913 19.0967 8.26986 19.0876 8.37137C19.0253 9.23849 18.9924 9.88621 18.9888 10.3145L18.9685 10.7674C18.9376 11.5002 18.9224 12.1659 18.9228 12.7645C18.9232 13.3631 18.9747 13.9305 19.0773 14.4668C19.264 15.4431 19.6073 16.083 20.1072 16.3865C20.2382 16.4755 20.3794 16.5055 20.5307 16.4766C20.9707 16.3924 21.3426 15.9151 21.6465 15.0445C21.9478 14.1602 22.2323 13.1508 22.4999 12.0163C22.7624 10.8543 22.9532 9.8771 23.0725 9.08459C23.2029 8.2757 23.2439 7.48391 23.1955 6.70921C23.1704 6.42893 23.1243 6.03865 23.0571 5.53836Z" fill="#F1554E"/>
<ellipse cx="39.5" cy="38.0222" rx="7.5" ry="1" fill="#5C9D51"/>
<path d="M46.7805 2.07177C47.9713 3.73939 46.9879 10.2816 44.3342 19.2758L41.0473 18.0615C43.8509 8.72364 46.7805 2.07177 46.7805 2.07177Z" fill="#81B778" stroke="white" stroke-linecap="round" stroke-linejoin="round"/>
<path d="M38.9337 5.20863C42.0342 7.28274 45.527 12.1715 44.3345 19.2759L39.7547 17.5839C41.0886 10.2299 38.9337 5.20863 38.9337 5.20863Z" fill="#81B778" stroke="white" stroke-linecap="round" stroke-linejoin="round"/>
<path d="M53.6835 7.20909C50.4164 7.19599 44.9672 9.80923 40.7474 17.9509L44.6226 19.3825C48.9319 10.886 53.6835 7.20909 53.6835 7.20909Z" fill="#81B778" stroke="white" stroke-linecap="round" stroke-linejoin="round"/>
<path d="M54.4345 11.7977C50.7518 11.2994 45.003 12.5169 41.4654 18.2159L46.0451 19.9079C49.6307 13.9463 54.4345 11.7977 54.4345 11.7977Z" fill="#81B778" stroke="white" stroke-linecap="round" stroke-linejoin="round"/>
<path d="M52.7529 16.35C47.8239 14.5289 42.9814 16.9814 41.4656 18.2158L45.7285 19.7907C48.1743 17.2685 52.7529 16.35 52.7529 16.35Z" fill="#81B778" stroke="white" stroke-linecap="round" stroke-linejoin="round"/>
<path d="M36.9717 10.5197C41.1014 12.0454 44.3009 15.4909 44.3347 19.2759L39.755 17.5839C39.8134 13.6821 36.9717 10.5197 36.9717 10.5197Z" fill="#81B778" stroke="white" stroke-linecap="round" stroke-linejoin="round"/>
<path d="M32.9781 23.5917L33.2994 22.6118C34.1732 19.9467 35.5221 18.1897 37.3462 17.3407C39.1702 16.4917 41.1846 16.4287 43.3895 17.1516C45.5869 17.872 47.1766 19.1168 48.1587 20.8858C49.1409 22.6548 49.195 24.8719 48.3212 27.537L47.9999 28.5169C47.1261 31.182 45.7698 32.9366 43.9309 33.7807C42.092 34.6248 40.0739 34.6866 37.8765 33.9662C35.6716 33.2433 34.0856 31.9997 33.1183 30.2356C32.1511 28.4714 32.1043 26.2568 32.9781 23.5917ZM37.4703 25.9895C37.02 27.3629 36.9412 28.4182 37.2339 29.1554C37.5266 29.8927 38.0998 30.4013 38.9535 30.6812C39.8072 30.9611 40.5777 30.8931 41.265 30.4771C41.9522 30.0611 42.521 29.1665 42.9712 27.7931L43.8365 25.154C44.2868 23.7806 44.357 22.7265 44.047 21.9918C43.7395 21.2497 43.1588 20.7387 42.3051 20.4588C41.4514 20.1789 40.6883 20.2494 40.016 20.6702C39.346 21.0836 38.7859 21.977 38.3356 23.3504L37.4703 25.9895Z" fill="white"/>
<rect x="22" y="21" width="4" height="4" fill="white"/>
</g>
<defs>
<clipPath id="clip0_533_917">
<rect width="111" height="39" fill="white"/>
</clipPath>
</defs>
</svg>
