<svg width="36" height="36" viewBox="0 0 36 36" fill="none" xmlns="http://www.w3.org/2000/svg">
<path d="M25 35.5C22.0833 35.5 19.6042 34.4792 17.5625 32.4375C15.5208 30.3958 14.5 27.9167 14.5 25C14.5 22.0833 15.5208 19.6042 17.5625 17.5625C19.6042 15.5208 22.0833 14.5 25 14.5C27.9167 14.5 30.3958 15.5208 32.4375 17.5625C34.4792 19.6042 35.5 22.0833 35.5 25C35.5 27.9167 34.4792 30.3958 32.4375 32.4375C30.3958 34.4792 27.9167 35.5 25 35.5ZM25 32C26.925 32 28.5729 31.3146 29.9438 29.9438C31.3146 28.5729 32 26.925 32 25C32 23.075 31.3146 21.4271 29.9438 20.0562C28.5729 18.6854 26.925 18 25 18C23.075 18 21.4271 18.6854 20.0562 20.0562C18.6854 21.4271 18 23.075 18 25C18 26.925 18.6854 28.5729 20.0562 29.9438C21.4271 31.3146 23.075 32 25 32ZM4 32C3.0375 32 2.21354 31.6573 1.52813 30.9719C0.842708 30.2865 0.5 29.4625 0.5 28.5V15.2C0.5 14.9667 0.521875 14.7333 0.565625 14.5C0.609375 14.2667 0.675 14.0333 0.7625 13.8L4.2625 5.75H4C3.50417 5.75 3.08854 5.58229 2.75313 5.24688C2.41771 4.91146 2.25 4.49583 2.25 4V2.25C2.25 1.75417 2.41771 1.33854 2.75313 1.00312C3.08854 0.667708 3.50417 0.5 4 0.5H10.1022H16.25C16.7458 0.5 17.1615 0.667708 17.4969 1.00312C17.8323 1.33854 18 1.75417 18 2.25V4C18 4.49583 17.8323 4.91146 17.4969 5.24688C17.1615 5.58229 16.7458 5.75 16.25 5.75H15.9875L18.875 12.4C18.3208 12.6917 17.7958 12.9979 17.3 13.3188C16.8042 13.6396 16.3375 14.0042 15.9 14.4125L12.225 5.75H8.025L4 15.2V28.5H11.4375C11.5833 29.1125 11.7802 29.7177 12.0281 30.3156C12.276 30.9135 12.575 31.475 12.925 32H4ZM25 12.75C23.775 12.75 22.7396 12.3271 21.8938 11.4813C21.0479 10.6354 20.625 9.6 20.625 8.375C20.625 7.15 21.0479 6.11458 21.8938 5.26875C22.7396 4.42292 23.775 4 25 4V12.75C25 11.525 25.4229 10.4896 26.2688 9.64375C27.1146 8.79792 28.15 8.375 29.375 8.375C30.6 8.375 31.6354 8.79792 32.4813 9.64375C33.3271 10.4896 33.75 11.525 33.75 12.75H25Z" fill="#474747"/>
</svg>
