<svg width="35" height="36" viewBox="0 0 35 36" fill="none" xmlns="http://www.w3.org/2000/svg">
<path fill-rule="evenodd" clip-rule="evenodd" d="M6.31899 3.12646e-05L6.26215 1.57674e-05C5.93778 -0.000115959 5.57588 -0.000262944 5.26329 0.0371163C4.89225 0.0814854 4.43078 0.192933 3.99969 0.529518C3.5686 0.866102 3.34855 1.28676 3.21552 1.63597C3.10344 1.93016 3.01581 2.28129 2.93727 2.59601L2.92349 2.65116L0.340161 12.9845L0.320414 13.0634C0.194682 13.5656 0.064017 14.0875 0.0188709 14.5316C-0.0326238 15.0381 -0.00892442 15.7401 0.48437 16.3719C0.977664 17.0037 1.65295 17.1969 2.15684 17.2698C2.4863 17.3175 2.86928 17.3295 3.25744 17.3325V29.75L3.25743 29.8395C3.25733 30.7052 3.25724 31.4988 3.34404 32.1444C3.43963 32.8554 3.66452 33.6069 4.28257 34.2249C4.90061 34.843 5.65207 35.0678 6.36303 35.1634C7.00862 35.2502 7.80224 35.2501 8.66783 35.25H8.66796L8.75745 35.25L12.8199 35.25H21.7783L25.8408 35.25L25.9303 35.25H25.9304C26.796 35.2501 27.5896 35.2502 28.2352 35.1634C28.9462 35.0678 29.6976 34.843 30.3156 34.2249C30.9337 33.6069 31.1586 32.8554 31.2542 32.1444C31.341 31.4988 31.3409 30.7052 31.3408 29.8396V29.8395V29.8395L31.3408 29.75V17.3325C31.7289 17.3295 32.1119 17.3175 32.4414 17.2698C32.9453 17.1969 33.6205 17.0037 34.1138 16.3719C34.6071 15.7401 34.6308 15.0381 34.5793 14.5316C34.5342 14.0875 34.4036 13.5657 34.2778 13.0636L34.2778 13.0635L34.2581 12.9845L31.6747 2.65116L31.661 2.59602C31.5824 2.2813 31.4948 1.93016 31.3827 1.63597C31.2497 1.28676 31.0296 0.866102 30.5985 0.529518C30.1674 0.192933 29.706 0.0814854 29.3349 0.0371163C29.0223 -0.000262944 28.6604 -0.000115959 28.3361 1.57674e-05L28.2792 3.12646e-05H6.31899ZM28.3408 17.3195C28.0661 17.3095 27.8074 17.2923 27.5695 17.2626C26.9391 17.1838 26.2755 17.0004 25.6894 16.5039C25.5692 16.4022 25.4615 16.295 25.3647 16.1837C25.344 16.2067 25.3229 16.2295 25.3012 16.2521C25.1318 16.4294 24.9442 16.5883 24.7415 16.7263C24.204 17.0924 23.6322 17.2244 23.0962 17.2815C22.6091 17.3335 22.0255 17.3334 21.3977 17.3334L21.3304 17.3334L21.263 17.3334C20.6352 17.3334 20.0516 17.3335 19.5645 17.2815C19.0285 17.2244 18.4568 17.0924 17.9192 16.7263C17.7165 16.5883 17.5289 16.4294 17.3595 16.2521C17.3389 16.2306 17.3188 16.2089 17.2991 16.1871C17.2794 16.2089 17.2593 16.2306 17.2387 16.2521C17.0693 16.4294 16.8817 16.5883 16.679 16.7263C16.1415 17.0924 15.5697 17.2244 15.0337 17.2815C14.5466 17.3335 13.963 17.3334 13.3352 17.3334L13.2679 17.3334L13.2005 17.3334C12.5727 17.3334 11.9891 17.3335 11.502 17.2815C10.966 17.2244 10.3943 17.0924 9.85671 16.7263C9.65403 16.5883 9.46643 16.4294 9.29697 16.2521C9.27532 16.2295 9.25419 16.2067 9.23356 16.1837C9.13668 16.295 9.02898 16.4022 8.90883 16.5039C8.32275 17.0004 7.65915 17.1838 7.02867 17.2626C6.79083 17.2923 6.53213 17.3095 6.25744 17.3195V29.75C6.25744 30.7352 6.26063 31.3233 6.31729 31.7447C6.34325 31.9378 6.37384 32.0345 6.39176 32.0781C6.39591 32.0882 6.39914 32.0948 6.40116 32.0987L6.40389 32.1036L6.40878 32.1063C6.41265 32.1083 6.41928 32.1116 6.42937 32.1157C6.47293 32.1336 6.56965 32.1642 6.76277 32.1902C7.18422 32.2468 7.77223 32.25 8.75745 32.25H11.3199V24C11.3199 22.6193 12.4392 21.5 13.8199 21.5H20.7783C22.159 21.5 23.2783 22.6193 23.2783 24V32.25H25.8408C26.826 32.25 27.414 32.2468 27.8354 32.1902C28.0286 32.1642 28.1253 32.1336 28.1688 32.1157C28.1789 32.1116 28.1856 32.1083 28.1894 32.1063L28.1943 32.1036L28.1971 32.0987L28.2006 32.0915C28.2022 32.088 28.2042 32.0835 28.2065 32.0781C28.2244 32.0345 28.255 31.9378 28.2809 31.7447C28.3376 31.3233 28.3408 30.7352 28.3408 29.75V17.3195ZM5.83392 3.37876C5.87177 3.22737 5.90217 3.10599 5.92984 3.00162C6.03781 3.00008 6.16294 3.00003 6.31899 3.00003H28.2792C28.4353 3.00003 28.5604 3.00008 28.6684 3.00162C28.696 3.10599 28.7264 3.22737 28.7643 3.37876L31.3476 13.7121C31.4086 13.9559 31.4585 14.156 31.4988 14.3301C31.3201 14.3333 31.1139 14.3334 30.8626 14.3334H29.6459C28.7983 14.3334 28.3013 14.3306 27.9412 14.2857C27.7776 14.2653 27.6941 14.2413 27.6554 14.2269C27.6408 14.2215 27.6333 14.2177 27.6307 14.2163L27.6296 14.2157L27.6285 14.2149L27.6275 14.2139C27.6269 14.2132 27.6216 14.2067 27.6122 14.1903C27.5917 14.1545 27.5543 14.076 27.5073 13.9181C27.4037 13.5702 27.3193 13.0805 27.18 12.2444L27.0385 11.3954L27.0314 11.3532L27.0314 11.3531C27.0007 11.1679 26.9624 10.9376 26.9153 10.757C26.8929 10.6711 26.8364 10.4617 26.7095 10.2466C26.5919 10.0473 26.1778 9.46664 25.3616 9.46664C24.5454 9.46664 24.1313 10.0473 24.0137 10.2466C23.8868 10.4617 23.8303 10.6711 23.8079 10.757C23.7608 10.9377 23.7225 11.168 23.6918 11.3532L23.6847 11.3954L23.5016 12.494C23.3836 13.2025 23.3124 13.6172 23.2292 13.9163C23.1803 14.092 23.1441 14.1607 23.1315 14.1804C23.1081 14.2046 23.0824 14.2264 23.0546 14.2455C23.0332 14.2547 22.9594 14.2791 22.7781 14.2985C22.4694 14.3314 22.0486 14.3334 21.3304 14.3334C20.6121 14.3334 20.1913 14.3314 19.8827 14.2985C19.7013 14.2791 19.6275 14.2547 19.6061 14.2455C19.5783 14.2264 19.5526 14.2046 19.5292 14.1804C19.5166 14.1607 19.4804 14.092 19.4315 13.9163C19.3483 13.6172 19.2772 13.2025 19.1591 12.494L18.976 11.3954L18.9689 11.3532L18.9689 11.3531C18.9382 11.1679 18.8999 10.9376 18.8528 10.757C18.8304 10.6711 18.7739 10.4617 18.647 10.2466C18.5294 10.0473 18.1153 9.46664 17.2991 9.46664C16.4829 9.46664 16.0688 10.0473 15.9512 10.2466C15.8243 10.4617 15.7678 10.6711 15.7454 10.757C15.6983 10.9376 15.66 11.1679 15.6293 11.3531L15.6293 11.3531L15.6222 11.3954L15.4391 12.494C15.3211 13.2025 15.2499 13.6172 15.1667 13.9163C15.1178 14.092 15.0816 14.1607 15.069 14.1804C15.0456 14.2046 15.0199 14.2264 14.9921 14.2455C14.9707 14.2547 14.8969 14.2791 14.7156 14.2985C14.4069 14.3314 13.9861 14.3334 13.2679 14.3334C12.5496 14.3334 12.1288 14.3314 11.8202 14.2985C11.6388 14.2791 11.565 14.2547 11.5436 14.2455C11.5158 14.2264 11.4901 14.2046 11.4667 14.1804C11.4541 14.1607 11.4179 14.092 11.369 13.9163C11.2858 13.6172 11.2147 13.2025 11.0966 12.494L10.9135 11.3954L10.9064 11.3531L10.9064 11.3531C10.8757 11.1679 10.8374 10.9376 10.7903 10.757C10.7679 10.6711 10.7114 10.4617 10.5845 10.2466C10.4669 10.0473 10.0528 9.46664 9.23661 9.46664C8.42039 9.46664 8.00631 10.0473 7.88868 10.2466C7.76182 10.4617 7.70529 10.6711 7.68287 10.757C7.63578 10.9376 7.59752 11.168 7.56677 11.3531L7.55974 11.3954L7.41825 12.2444C7.27889 13.0805 7.19451 13.5702 7.09095 13.9181C7.04392 14.076 7.00652 14.1545 6.98601 14.1903C6.97664 14.2067 6.97132 14.2132 6.97072 14.2139L6.96971 14.2149L6.96857 14.2157C6.96775 14.2162 6.96047 14.2204 6.94279 14.2269C6.90408 14.2413 6.82057 14.2653 6.657 14.2857C6.29688 14.3306 5.79995 14.3334 4.95226 14.3334H3.73566C3.48434 14.3334 3.27812 14.3333 3.09942 14.3301C3.13969 14.156 3.18964 13.9559 3.25059 13.7121L5.83392 3.37876ZM23.1266 14.1868C23.1266 14.1865 23.1282 14.1841 23.1314 14.1805C23.1283 14.1853 23.1267 14.1871 23.1266 14.1868ZM23.0618 14.2418C23.062 14.2419 23.0599 14.2432 23.0547 14.2454C23.0589 14.2428 23.0615 14.2417 23.0618 14.2418ZM19.599 14.2418C19.5992 14.2417 19.6019 14.2428 19.606 14.2455C19.6007 14.2432 19.5987 14.2419 19.599 14.2418ZM19.5293 14.1805C19.5324 14.1853 19.534 14.1871 19.5341 14.1868C19.5341 14.1867 19.5338 14.1861 19.5331 14.1851C19.5323 14.184 19.531 14.1824 19.5293 14.1805ZM15.0654 14.1848C15.0645 14.1859 15.0641 14.1866 15.0641 14.1868C15.0642 14.1871 15.0658 14.1853 15.0689 14.1805C15.0673 14.1822 15.0662 14.1837 15.0654 14.1848ZM14.9923 14.2454C14.9975 14.2432 14.9996 14.2419 14.9993 14.2418C14.999 14.2417 14.9975 14.2423 14.995 14.2438C14.9942 14.2442 14.9933 14.2448 14.9923 14.2454ZM11.5382 14.2424C11.5372 14.2419 11.5366 14.2417 11.5364 14.2418C11.5362 14.2419 11.5383 14.2432 11.5435 14.2454C11.5412 14.244 11.5394 14.243 11.5382 14.2424ZM11.4668 14.1805C11.4699 14.1853 11.4715 14.1871 11.4716 14.1868C11.4716 14.1866 11.4711 14.1857 11.4699 14.1842C11.4691 14.1832 11.4681 14.1819 11.4668 14.1805ZM20.2783 24.5V32.25H14.3199V24.5H20.2783Z" fill="#474747"/>
</svg>
